<?xml version="1.0" encoding="utf-8"?>
<!-- Generator: Adobe Illustrator 23.0.4, SVG Export Plug-In . SVG Version: 6.00 Build 0)  -->
<svg version="1.1" id="Capa_1" xmlns="http://www.w3.org/2000/svg" xmlns:xlink="http://www.w3.org/1999/xlink" x="0px" y="0px"
	 viewBox="0 0 250 141.9" style="enable-background:new 0 0 250 141.9;" xml:space="preserve">
<style type="text/css">
	.st0{fill:url(#SVGID_1_);}
</style>
<g>
	
		<linearGradient id="SVGID_1_" gradientUnits="userSpaceOnUse" x1="125.0652" y1="72.4828" x2="125.0652" y2="152.0665" gradientTransform="matrix(1 0 0 -1 0 195.8898)">
		<stop  offset="0" style="stop-color:#00B1EB"/>
		<stop  offset="3.965586e-02" style="stop-color:#00B7E7"/>
		<stop  offset="0.1176" style="stop-color:#6EC7DC"/>
		<stop  offset="0.2124" style="stop-color:#B8DCC7"/>
		<stop  offset="0.3141" style="stop-color:#D6E6BA"/>
		<stop  offset="0.4164" style="stop-color:#F4F0A9"/>
		<stop  offset="0.5197" style="stop-color:#F6ED97"/>
		<stop  offset="0.7291" style="stop-color:#FAE263"/>
		<stop  offset="1" style="stop-color:#FED300"/>
		<stop  offset="1" style="stop-color:#FEDA00"/>
	</linearGradient>
	<path class="st0" d="M239.7,105.9l-44.8-86.6c-3.9-7.7-11.8-13-21-13l0,0l0,0c-9.2,0-17.1,5.3-21,13l-31.6,61
		c-3.5-6.3-9.1-11.2-15.9-13.8C113,61,117.9,52.1,117.9,42c0-11.7-6.6-21.8-16.3-26.8c-8.5-4.5-18.3-7-28.6-7H25.8
		C16.1,8.2,8.3,16,8.3,25.7v87.8c0,9.7,7.8,17.5,17.5,17.5h17h34c9.8,0,19.2-2,27.7-5.7l3.2-1.6c0.2-0.1,0.4-0.2,0.5-0.3
		c3.1,5.1,8.6,8.5,15,8.5c7.1,0,13.2-4.2,16-10.3c1.4-3.2,4.5-5.5,8.1-5.7h52.9c3.7,0.2,6.8,2.4,8.1,5.7c2.8,6.1,8.9,10.3,16,10.3
		c9.7,0,17.5-7.9,17.5-17.5C242,111.3,241.2,108.4,239.7,105.9z"/>
</g>
</svg>
